Coordinates
version=1
nRows=9
nColumns=63
inDegrees=yes

Units are S.I. units (second, meters, Newtons, ...)
If the header above contains a line with 'inDegrees', this indicates whether rotational values are in degrees (yes) or radians (no).

endheader
time	pelvis_tilt	pelvis_list	pelvis_rotation	pelvis_tx	pelvis_ty	pelvis_tz	hip_flexion_r	hip_adduction_r	hip_rotation_r	knee_angle_r	knee_angle_r_beta	ankle_angle_r	subtalar_angle_r	mtp_angle_r	hip_flexion_l	hip_adduction_l	hip_rotation_l	knee_angle_l	knee_angle_l_beta	ankle_angle_l	subtalar_angle_l	mtp_angle_l	L5_S1_Flex_Ext	L5_S1_Lat_Bending	L5_S1_axial_rotation	L4_L5_Flex_Ext	L4_L5_Lat_Bending	L4_L5_axial_rotation	L3_L4_Flex_Ext	L3_L4_Lat_Bending	L3_L4_axial_rotation	L2_L3_Flex_Ext	L2_L3_Lat_Bending	L2_L3_axial_rotation	L1_L2_Flex_Ext	L1_L2_Lat_Bending	L1_L2_axial_rotation	L1_T12_Flex_Ext	L1_T12_Lat_Bending	L1_T12_axial_rotation	Abs_r3	Abs_r2	Abs_r1	Abs_t1	Abs_t2	neck_flexion	neck_bending	neck_rotation	arm_flex_r	arm_add_r	arm_rot_r	elbow_flex_r	pro_sup_r	wrist_flex_r	wrist_dev_r	arm_flex_l	arm_add_l	arm_rot_l	elbow_flex_l	pro_sup_l	wrist_flex_l	wrist_dev_l
1.583333	2.617936	-0.919714	103.584986	0.252748	0.856669	0.790905	-5.258969	4.629217	-2.458434	12.981976	0.226578	29.506962	-5.488944	0.000000	-3.102023	-4.446181	3.016541	14.417749	0.251637	37.020319	-2.984821	0.000000	-0.427134	0.722577	-0.800611	-0.793231	0.961028	-0.850649	-0.701739	1.756875	-0.850649	-0.488172	1.756875	-0.700535	-0.396637	1.473480	-0.650497	-0.244064	1.119272	-0.600458	-3.050976	8.173939	-4.452759	0.000000	0.000000	17.967643	-6.081495	10.141382	-5.712584	-15.500528	40.481667	20.747069	68.702582	-6.030535	-1.893641	2.885049	-10.467735	91.496287	11.717846	28.209461	-5.694374	-3.648064
1.600000	2.344077	-1.014424	103.460107	0.253830	0.857175	0.791022	-5.166149	4.365342	-2.313918	13.074818	0.228199	29.455650	-5.677892	0.000000	-3.070942	-4.217597	2.521990	14.418556	0.251651	36.880741	-2.549443	0.000000	-0.410511	0.664036	-0.888936	-0.762359	0.883168	-0.944495	-0.674428	1.614538	-0.944495	-0.469173	1.614538	-0.777819	-0.381200	1.354103	-0.722261	-0.234566	1.028592	-0.666702	-2.932236	7.511712	-4.943996	0.000000	0.000000	18.330795	-5.580522	10.409229	-5.654101	-15.135873	39.700796	21.054175	69.759882	-5.975545	-1.307312	2.293836	-10.807974	88.845746	11.647054	28.964631	-5.256830	-3.077073
1.616667	2.083173	-1.114772	103.394934	0.254733	0.857747	0.791119	-5.077764	4.117696	-2.191096	13.155810	0.229612	29.324466	-5.934438	0.000000	-3.014260	-3.991318	2.159156	14.429856	0.251848	36.733283	-2.167744	0.000000	-0.393398	0.609059	-0.963180	-0.730579	0.810049	-1.023378	-0.646313	1.480867	-1.023378	-0.449614	1.480867	-0.842782	-0.365309	1.241994	-0.782583	-0.224787	0.943433	-0.722385	-2.809999	6.889801	-5.356916	0.000000	0.000000	18.694931	-5.054889	10.606375	-5.618151	-14.818591	38.964425	21.321186	70.867151	-5.856517	-0.625770	1.781934	-11.110002	86.235129	11.602804	29.926509	-4.828900	-2.354289
1.633333	1.868178	-1.214382	103.370908	0.255397	0.858376	0.791127	-5.006019	3.914153	-2.091021	13.203109	0.230438	29.110247	-6.205811	0.000000	-2.952669	-3.792890	1.942600	14.418973	0.251659	36.577091	-1.897203	0.000000	-0.375885	0.562905	-1.009056	-0.698055	0.748663	-1.072122	-0.617541	1.368646	-1.072122	-0.429599	1.368646	-0.882924	-0.349046	1.147875	-0.819858	-0.214780	0.871939	-0.756792	-2.684906	6.367689	-5.612068	0.000000	0.000000	19.061238	-4.591214	10.601173	-5.662136	-14.566111	38.212580	21.552347	71.915609	-5.691048	0.035921	1.362734	-11.341166	83.748030	11.559364	31.106493	-4.420471	-1.690571
1.650000	1.709181	-1.323268	103.410018	0.255767	0.859039	0.791080	-4.938591	3.759781	-2.051279	13.214151	0.230630	28.820895	-6.460832	0.000000	-2.865184	-3.632305	1.882353	14.397250	0.251279	36.421805	-1.702426	0.000000	-0.357614	0.527819	-1.025769	-0.664125	0.701999	-1.089879	-0.587524	1.283339	-1.089879	-0.408717	1.283339	-0.897547	-0.332080	1.076328	-0.833437	-0.204341	0.817592	-0.769326	-2.554401	5.970794	-5.705017	0.000000	0.000000	19.443338	-4.193358	10.389310	-5.780736	-14.391779	37.504102	21.737532	72.833453	-5.490985	0.677489	1.070296	-11.486769	81.509833	11.533362	32.529500	-4.104865	-1.035834
1.666667	1.599828	-1.429908	103.479920	0.255872	0.859740	0.790932	-4.894160	3.649990	-2.033049	13.181232	0.230056	28.466215	-6.705828	0.000000	-2.788803	-3.504440	1.963281	14.332593	0.250151	36.250370	-1.608320	0.000000	-0.340278	0.503770	-1.010777	-0.631931	0.670014	-1.073950	-0.559043	1.224866	-1.073950	-0.388904	1.224866	-0.884430	-0.315982	1.027287	-0.821256	-0.194435	0.780339	-0.758083	-2.430574	5.698743	-5.621637	0.000000	0.000000	19.819972	-3.852555	10.009976	-5.919684	-14.326651	37.288464	21.802580	73.086247	-5.343716	1.086856	0.894872	-11.553376	79.589682	11.513343	34.039638	-3.854081	-0.495691
1.683333	1.542877	-1.537355	103.562910	0.255721	0.860444	0.790698	-4.866940	3.584593	-2.016013	13.104919	0.228724	28.056763	-6.940535	0.000000	-2.726385	-3.414511	2.102380	14.220089	0.248187	36.072106	-1.549650	0.000000	-0.323609	0.491863	-0.962517	-0.600974	0.654178	-1.022675	-0.531657	1.195917	-1.022675	-0.369853	1.195917	-0.842203	-0.300503	1.003008	-0.782045	-0.184910	0.761896	-0.721888	-2.311507	5.564056	-5.353232	0.000000	0.000000	20.205307	-3.590290	9.508390	-6.176649	-14.312022	36.824874	21.864273	73.419453	-5.166035	1.429795	0.830264	-11.537298	77.888358	11.506885	35.751688	-3.654517	-0.013469
1.700000	1.533510	-1.652822	103.667661	0.255315	0.861130	0.790407	-4.848811	3.555629	-2.031660	12.986250	0.226653	27.611584	-7.130283	0.000000	-2.672774	-3.357272	2.306015	14.057605	0.245351	35.871357	-1.542512	0.000000	-0.306086	0.491170	-0.893605	-0.568433	0.653256	-0.949456	-0.502869	1.194230	-0.949456	-0.349826	1.194230	-0.781905	-0.284232	1.001594	-0.726054	-0.174898	0.760822	-0.670204	-2.186344	5.556212	-4.969965	0.000000	0.000000	20.607484	-3.394267	8.965943	-6.520611	-14.358529	36.192730	21.929469	73.833001	-4.965824	1.678501	0.848231	-11.454863	76.445403	11.533306	37.486002	-3.539912	0.435891
1.716667	1.558845	-1.773517	103.753518	0.254758	0.861791	0.790094	-4.837072	3.551348	-2.022642	12.834848	0.224010	27.144548	-7.294458	0.000000	-2.641035	-3.322134	2.520000	13.840515	0.241563	35.633551	-1.597567	0.000000	-0.288617	0.499211	-0.803593	-0.535990	0.663950	-0.853817	-0.474169	1.213781	-0.853817	-0.329860	1.213781	-0.703144	-0.268010	1.017991	-0.652919	-0.164916	0.773278	-0.602694	-2.061562	5.647173	-4.469341	0.000000	0.000000	21.031604	-3.267265	8.406543	-6.934156	-14.448728	35.398738	22.003986	74.317396	-4.747058	1.798944	0.935700	-11.329881	75.290644	11.585172	39.144055	-3.451994	0.827401
